<svg id="svg" version="1.1" xmlns="http://www.w3.org/2000/svg" xmlns:xlink="http://www.w3.org/1999/xlink" width="400" height="385.0622406639004" viewBox="0, 0, 400,385.0622406639004"><g id="svgg"><path id="path0" d="M240.077 18.069 C 238.617 18.453,237.854 20.487,237.384 25.241 C 237.154 27.572,236.723 30.867,236.426 32.563 C 236.130 34.258,235.774 37.206,235.635 39.114 C 235.496 41.021,235.141 43.622,234.845 44.894 C 234.550 46.166,234.301 48.247,234.293 49.518 C 234.285 50.790,234.112 52.524,233.909 53.372 C 233.706 54.220,233.270 57.341,232.939 60.308 C 232.608 63.276,232.180 66.084,231.987 66.548 L 231.636 67.393 229.188 66.693 C 227.841 66.308,226.161 65.694,225.455 65.329 C 223.281 64.205,218.879 64.429,216.711 65.773 C 215.748 66.371,214.325 67.251,213.549 67.730 C 212.017 68.675,210.897 68.617,209.249 67.508 C 208.719 67.151,207.852 66.681,207.322 66.464 C 206.209 66.007,204.980 65.294,200.699 62.620 C 197.167 60.415,193.392 58.266,192.967 58.220 C 192.468 58.166,192.662 62.525,193.257 64.740 C 193.570 65.906,193.995 68.593,194.201 70.713 C 194.407 72.832,194.831 75.954,195.142 77.649 C 195.453 79.345,195.814 81.859,195.944 83.237 C 196.190 85.858,197.359 95.241,198.057 100.193 C 198.280 101.782,198.643 104.644,198.861 106.551 C 199.594 112.935,201.133 121.570,201.702 122.492 C 201.859 122.745,202.147 124.638,202.341 126.698 C 202.536 128.758,202.959 132.004,203.282 133.911 C 203.605 135.819,204.042 139.374,204.254 141.811 C 204.466 144.249,204.797 147.283,204.991 148.555 C 205.184 149.827,205.533 153.035,205.766 155.684 C 206.000 158.333,206.433 161.541,206.730 162.813 C 207.027 164.085,207.377 166.599,207.508 168.401 C 207.638 170.202,207.908 172.197,208.107 172.832 C 208.305 173.468,208.723 176.156,209.035 178.805 C 210.028 187.247,212.209 192.104,215.884 194.056 C 216.883 194.586,216.957 194.563,217.469 193.549 C 218.101 192.298,219.268 185.061,219.268 182.394 C 219.268 181.374,219.597 178.459,219.999 175.915 C 220.401 173.372,220.839 169.715,220.972 167.788 C 221.104 165.862,221.385 163.694,221.596 162.971 C 221.807 162.248,222.159 158.969,222.380 155.684 C 222.600 152.399,222.946 149.017,223.147 148.170 C 223.349 147.322,223.769 143.727,224.081 140.182 C 224.393 136.636,224.815 132.995,225.019 132.089 C 225.224 131.184,225.589 127.929,225.831 124.855 C 226.072 121.782,226.503 118.141,226.789 116.763 C 227.074 115.385,227.413 112.351,227.543 110.019 C 227.673 107.688,227.946 105.087,228.149 104.239 C 228.353 103.391,228.777 100.010,229.092 96.724 C 229.407 93.439,229.925 89.104,230.244 87.091 C 230.562 85.077,230.824 82.053,230.826 80.371 C 230.828 77.626,231.236 75.141,232.391 70.833 C 232.802 69.301,233.726 68.752,235.248 69.134 C 238.361 69.915,245.560 70.523,248.942 70.290 C 254.060 69.938,256.685 71.471,259.539 76.478 C 260.640 78.410,260.971 78.786,263.890 81.420 C 265.035 82.453,265.633 83.381,265.940 84.599 C 266.295 86.010,268.208 87.371,268.208 86.213 C 268.208 85.748,269.819 74.819,270.104 73.353 C 270.304 72.325,270.573 69.598,270.702 67.294 C 270.830 64.990,271.173 61.955,271.462 60.550 C 271.751 59.145,272.101 56.175,272.239 53.950 C 272.378 51.724,272.730 48.516,273.022 46.821 C 273.315 45.125,273.662 42.004,273.795 39.884 C 273.928 37.765,274.280 34.644,274.577 32.948 C 276.647 21.137,276.314 20.631,266.089 20.043 C 262.909 19.860,258.748 19.445,256.840 19.121 C 254.933 18.796,251.204 18.431,248.555 18.308 C 245.906 18.185,243.131 18.024,242.389 17.950 C 241.647 17.876,240.607 17.929,240.077 18.069 M177.842 28.125 C 174.875 28.497,171.725 29.000,170.842 29.243 C 169.960 29.486,167.527 29.847,165.436 30.047 C 163.345 30.246,160.605 30.677,159.349 31.004 C 158.092 31.331,156.591 31.599,156.014 31.599 C 154.679 31.599,154.416 32.386,154.476 36.199 C 154.515 38.747,154.696 40.162,155.562 44.723 C 155.857 46.275,154.873 46.753,150.733 47.072 C 145.079 47.506,139.913 48.732,135.274 50.741 C 131.424 52.408,121.293 52.463,117.107 50.840 C 115.141 50.077,113.938 50.455,109.958 53.084 C 102.015 58.332,98.421 62.671,96.154 69.750 C 95.163 72.844,93.404 74.537,86.127 79.397 C 82.999 81.486,81.193 82.847,78.665 85.020 C 77.895 85.682,75.877 87.217,74.182 88.431 C 71.029 90.688,69.757 92.118,69.752 93.407 C 69.751 93.807,69.417 94.848,69.010 95.719 C 68.604 96.590,67.989 98.170,67.644 99.229 C 66.231 103.573,65.423 106.288,64.892 108.478 C 64.583 109.750,64.087 111.484,63.789 112.331 C 63.491 113.179,63.137 114.566,63.002 115.414 C 62.867 116.262,62.531 117.306,62.255 117.735 C 61.980 118.163,61.633 119.290,61.485 120.240 C 61.228 121.882,60.250 124.846,59.135 127.360 C 58.076 129.749,56.576 133.567,56.258 134.682 C 56.077 135.318,55.661 136.618,55.334 137.572 C 53.667 142.432,53.431 143.647,53.457 147.234 C 53.494 152.597,55.332 155.708,60.965 159.945 C 61.968 160.699,64.398 162.855,66.365 164.736 C 75.375 173.350,78.634 176.572,79.550 177.774 C 80.094 178.486,81.362 179.642,82.369 180.342 C 83.376 181.043,84.968 182.498,85.907 183.577 C 89.260 187.433,92.132 189.017,95.158 188.679 C 102.054 187.909,105.901 187.346,106.804 186.978 C 107.366 186.748,109.931 186.366,112.502 186.129 C 115.074 185.893,118.428 185.463,119.957 185.175 C 121.485 184.887,123.950 184.536,125.434 184.394 C 126.917 184.253,129.353 183.805,130.846 183.400 C 135.973 182.008,142.302 182.241,145.587 183.941 C 147.069 184.708,149.731 185.674,151.501 186.088 C 158.607 187.751,160.755 188.375,161.414 188.971 C 161.793 189.315,162.273 189.595,162.481 189.595 C 164.700 189.595,165.554 198.010,163.633 200.943 C 163.343 201.384,162.984 202.350,162.834 203.089 C 162.684 203.827,162.274 205.212,161.923 206.166 C 160.162 210.944,161.492 216.177,164.469 216.183 C 165.344 216.185,167.209 214.467,167.233 213.638 C 167.239 213.402,167.651 212.610,168.149 211.878 C 168.646 211.145,169.176 210.037,169.326 209.415 C 169.615 208.223,170.770 205.856,172.435 203.041 C 176.697 195.838,177.444 189.456,175.159 179.769 C 174.859 178.497,174.416 175.376,174.173 172.832 C 173.931 170.289,173.487 167.026,173.186 165.582 C 172.886 164.137,172.640 162.187,172.640 161.248 C 172.640 160.309,172.303 158.543,171.892 157.323 C 171.481 156.104,171.026 153.892,170.881 152.408 C 170.736 150.925,170.471 149.429,170.292 149.085 C 170.113 148.741,169.778 146.400,169.547 143.883 C 169.315 141.366,168.886 138.353,168.593 137.187 C 168.301 136.021,167.870 133.073,167.637 130.636 C 167.404 128.198,167.059 125.597,166.870 124.855 C 166.682 124.114,166.336 121.513,166.103 119.075 C 165.869 116.638,165.434 113.430,165.137 111.946 C 164.839 110.462,164.407 106.979,164.177 104.206 C 163.947 101.433,163.603 98.619,163.412 97.954 C 163.221 97.288,162.949 95.136,162.807 93.170 C 162.665 91.204,162.297 88.468,161.990 87.091 C 161.682 85.713,161.278 82.592,161.092 80.154 C 160.906 77.717,160.558 75.211,160.318 74.586 C 160.079 73.961,159.635 71.186,159.331 68.420 C 159.026 65.654,158.606 62.697,158.397 61.850 C 158.187 61.002,157.821 58.401,157.583 56.071 C 157.346 53.740,156.994 51.541,156.803 51.183 C 154.980 47.777,166.548 45.891,176.144 48.030 C 180.564 49.015,181.857 49.800,184.382 53.027 C 186.168 55.310,188.146 56.647,189.736 56.647 C 190.017 56.647,190.561 56.994,190.944 57.418 C 191.328 57.842,191.788 58.189,191.967 58.189 C 192.504 58.189,192.326 52.760,191.715 50.482 C 191.403 49.316,191.045 46.715,190.920 44.701 C 190.796 42.688,190.458 40.000,190.171 38.728 C 189.883 37.457,189.446 34.769,189.199 32.755 C 188.475 26.857,188.356 26.808,177.842 28.125 M267.659 91.197 C 267.375 92.489,266.470 100.142,265.888 106.166 C 265.663 108.497,265.311 112.052,265.106 114.066 C 264.901 116.079,264.556 119.634,264.339 121.965 C 264.122 124.297,263.688 127.938,263.375 130.058 C 263.063 132.177,262.636 135.923,262.428 138.381 C 262.220 140.839,261.702 145.174,261.278 148.014 C 260.853 150.855,260.505 153.802,260.503 154.563 C 260.502 155.324,260.171 157.578,259.767 159.573 C 259.363 161.567,258.917 165.086,258.774 167.393 C 258.632 169.700,258.343 172.041,258.132 172.595 C 257.920 173.150,257.503 177.299,257.205 181.816 C 256.907 186.333,256.575 190.172,256.467 190.346 C 256.360 190.520,256.009 194.142,255.689 198.396 C 255.368 202.649,254.937 206.961,254.731 207.978 C 254.524 208.995,254.176 211.858,253.956 214.340 C 253.736 216.823,253.372 219.337,253.146 219.928 C 252.921 220.519,252.568 222.563,252.362 224.470 C 251.796 229.720,250.530 233.049,249.677 231.526 C 249.503 231.214,247.868 229.412,246.044 227.522 C 244.221 225.631,241.829 222.978,240.729 221.626 C 236.788 216.782,232.455 212.054,225.688 205.215 C 221.907 201.393,218.676 197.919,218.507 197.495 C 218.271 196.900,218.143 197.162,217.943 198.651 C 217.802 199.711,217.275 202.746,216.774 205.395 C 216.272 208.044,215.759 211.741,215.634 213.610 C 215.508 215.479,215.229 217.796,215.014 218.758 C 214.798 219.721,214.365 223.220,214.051 226.535 C 213.737 229.850,213.319 233.430,213.122 234.489 C 212.552 237.549,212.628 247.798,213.230 248.951 C 213.509 249.487,213.942 250.735,214.192 251.726 C 214.889 254.494,217.397 258.964,219.894 261.886 C 222.650 265.112,224.410 265.703,231.251 265.703 L 236.876 265.703 238.958 264.249 C 244.200 260.588,247.259 256.338,248.730 250.674 C 249.061 249.403,249.595 247.565,249.918 246.590 C 250.262 245.553,250.634 242.317,250.816 238.785 C 251.157 232.193,251.325 231.492,251.961 234.017 C 252.249 235.159,252.695 235.861,253.359 236.217 C 253.896 236.504,254.335 236.855,254.335 236.998 C 254.335 237.203,260.468 243.384,263.527 246.262 C 263.876 246.591,265.029 247.885,266.089 249.138 C 267.148 250.391,268.567 251.921,269.241 252.537 C 275.595 258.351,266.886 272.751,256.262 273.998 C 253.530 274.319,242.764 275.705,238.150 276.330 C 236.561 276.545,233.786 276.898,231.985 277.114 C 230.183 277.330,227.148 277.782,225.241 278.119 C 223.333 278.455,219.692 278.955,217.148 279.229 C 212.697 279.710,211.271 279.913,203.661 281.156 C 201.753 281.468,198.198 281.971,195.761 282.275 C 193.324 282.579,190.029 283.082,188.439 283.393 C 185.362 283.994,181.466 284.677,179.094 285.030 C 177.058 285.333,177.193 286.677,179.768 291.715 C 183.665 299.343,186.127 304.357,186.127 304.666 C 186.127 304.876,186.322 305.243,186.559 305.480 C 187.009 305.930,187.918 308.015,190.216 313.873 C 191.925 318.228,197.133 328.838,200.052 333.911 C 202.389 337.974,203.374 341.314,204.227 348.065 C 205.206 355.814,210.348 359.334,216.185 356.252 C 217.371 355.626,218.534 355.537,225.819 355.515 C 233.674 355.492,234.184 355.446,235.640 354.624 C 236.484 354.147,237.412 353.757,237.701 353.757 C 238.276 353.757,243.398 350.232,245.350 348.492 C 247.160 346.879,247.817 346.362,249.653 345.109 C 252.839 342.935,256.582 338.500,257.267 336.087 C 257.961 333.645,260.451 328.420,261.645 326.903 C 262.075 326.356,262.428 325.733,262.428 325.519 C 262.428 324.967,265.717 321.167,268.167 318.888 C 270.353 316.855,272.446 313.153,272.447 311.320 C 272.447 310.764,272.683 309.637,272.971 308.815 C 273.259 307.994,273.610 306.281,273.749 305.010 C 274.457 298.569,276.381 294.803,281.229 290.366 C 283.203 288.561,285.839 284.952,288.831 279.961 C 289.847 278.266,290.974 276.532,291.334 276.108 C 291.925 275.412,294.358 271.222,298.497 263.776 C 302.605 256.385,303.045 253.215,300.625 248.455 C 299.804 246.839,299.025 245.029,298.895 244.434 C 298.765 243.839,298.011 241.416,297.218 239.050 L 295.778 234.747 296.516 232.692 C 297.627 229.598,300.755 223.892,301.340 223.892 C 301.505 223.892,301.873 223.330,302.158 222.643 C 302.442 221.956,304.935 219.052,307.696 216.189 C 310.457 213.325,313.662 209.855,314.817 208.478 C 318.226 204.414,322.491 200.414,325.407 198.546 C 333.197 193.557,334.745 191.972,336.969 186.705 C 337.775 184.798,339.088 181.850,339.888 180.154 C 341.674 176.368,343.275 172.507,343.805 170.713 C 344.024 169.971,344.346 169.189,344.520 168.974 C 344.694 168.760,345.117 167.459,345.460 166.084 C 345.803 164.709,346.260 162.891,346.475 162.044 C 346.691 161.197,346.755 159.689,346.618 158.693 L 346.369 156.881 344.379 156.523 C 340.920 155.902,334.192 156.921,329.865 158.723 C 318.895 163.290,316.336 162.236,306.097 148.940 C 304.955 147.457,302.725 144.595,301.142 142.582 C 295.717 135.683,294.248 133.110,291.605 125.876 C 291.384 125.272,290.774 124.145,290.249 123.372 C 289.723 122.598,288.612 120.665,287.779 119.075 C 286.946 117.486,285.936 115.665,285.533 115.029 C 285.131 114.393,284.548 113.426,284.237 112.880 C 283.672 111.887,280.423 106.892,279.870 106.166 C 279.239 105.338,277.457 102.511,277.457 102.340 C 277.457 101.947,275.059 98.633,274.443 98.175 C 273.345 97.357,270.520 93.762,270.520 93.182 C 270.520 92.882,269.931 92.065,269.210 91.367 L 267.901 90.098 267.659 91.197 M163.942 220.347 C 163.321 221.718,162.640 223.147,162.428 223.523 C 162.216 223.899,160.973 226.260,159.666 228.770 C 158.359 231.280,156.776 234.287,156.149 235.453 C 155.521 236.618,153.313 240.954,151.242 245.087 C 149.170 249.220,146.866 253.815,146.122 255.299 C 145.378 256.782,144.364 258.600,143.868 259.338 C 143.373 260.076,142.967 260.824,142.967 261.000 C 142.967 261.445,141.295 265.092,139.308 268.979 C 136.463 274.543,136.829 277.877,140.710 281.781 C 141.073 282.145,141.830 283.048,142.393 283.786 C 145.677 288.092,155.739 289.232,166.474 286.516 C 167.640 286.221,169.721 285.861,171.098 285.717 C 172.476 285.573,174.470 285.240,175.530 284.978 L 177.457 284.500 177.649 279.726 C 177.824 275.394,177.970 274.631,179.222 271.484 C 185.428 255.887,185.392 250.484,178.989 236.809 C 178.252 235.235,177.649 233.860,177.649 233.754 C 177.649 233.647,177.259 232.973,176.782 232.255 C 176.305 231.537,175.482 230.213,174.952 229.314 C 174.422 228.414,173.338 226.902,172.543 225.954 C 171.749 225.006,171.098 224.091,171.098 223.921 C 171.098 223.751,170.231 222.731,169.171 221.654 C 168.112 220.577,167.245 219.526,167.245 219.318 C 167.245 219.109,166.755 218.695,166.157 218.396 L 165.070 217.854 163.942 220.347 " stroke="none" fill="#fafbf3" fill-rule="evenodd"></path><path id="path1" d="M0.000 192.678 L 0.000 385.356 200.000 385.356 L 400.000 385.356 400.000 192.678 L 400.000 0.000 200.000 0.000 L 0.000 0.000 0.000 192.678 M248.555 18.308 C 251.204 18.431,254.933 18.796,256.840 19.121 C 258.748 19.445,262.909 19.860,266.089 20.043 C 276.314 20.631,276.647 21.137,274.577 32.948 C 274.280 34.644,273.928 37.765,273.795 39.884 C 273.662 42.004,273.315 45.125,273.022 46.821 C 272.730 48.516,272.378 51.724,272.239 53.950 C 272.101 56.175,271.751 59.145,271.462 60.550 C 271.173 61.955,270.830 64.990,270.702 67.294 C 270.573 69.598,270.304 72.325,270.104 73.353 C 269.819 74.819,268.208 85.748,268.208 86.213 C 268.208 87.371,266.295 86.010,265.940 84.599 C 265.633 83.381,265.035 82.453,263.890 81.420 C 260.971 78.786,260.640 78.410,259.539 76.478 C 256.685 71.471,254.060 69.938,248.942 70.290 C 245.560 70.523,238.361 69.915,235.248 69.134 C 233.726 68.752,232.802 69.301,232.391 70.833 C 231.236 75.141,230.828 77.626,230.826 80.371 C 230.824 82.053,230.562 85.077,230.244 87.091 C 229.925 89.104,229.407 93.439,229.092 96.724 C 228.777 100.010,228.353 103.391,228.149 104.239 C 227.946 105.087,227.673 107.688,227.543 110.019 C 227.413 112.351,227.074 115.385,226.789 116.763 C 226.503 118.141,226.072 121.782,225.831 124.855 C 225.589 127.929,225.224 131.184,225.019 132.089 C 224.815 132.995,224.393 136.636,224.081 140.182 C 223.769 143.727,223.349 147.322,223.147 148.170 C 222.946 149.017,222.600 152.399,222.380 155.684 C 222.159 158.969,221.807 162.248,221.596 162.971 C 221.385 163.694,221.104 165.862,220.972 167.788 C 220.839 169.715,220.401 173.372,219.999 175.915 C 219.597 178.459,219.268 181.374,219.268 182.394 C 219.268 185.061,218.101 192.298,217.469 193.549 C 216.957 194.563,216.883 194.586,215.884 194.056 C 212.209 192.104,210.028 187.247,209.035 178.805 C 208.723 176.156,208.305 173.468,208.107 172.832 C 207.908 172.197,207.638 170.202,207.508 168.401 C 207.377 166.599,207.027 164.085,206.730 162.813 C 206.433 161.541,206.000 158.333,205.766 155.684 C 205.533 153.035,205.184 149.827,204.991 148.555 C 204.797 147.283,204.466 144.249,204.254 141.811 C 204.042 139.374,203.605 135.819,203.282 133.911 C 202.959 132.004,202.536 128.758,202.341 126.698 C 202.147 124.638,201.859 122.745,201.702 122.492 C 201.133 121.570,199.594 112.935,198.861 106.551 C 198.643 104.644,198.280 101.782,198.057 100.193 C 197.359 95.241,196.190 85.858,195.944 83.237 C 195.814 81.859,195.453 79.345,195.142 77.649 C 194.831 75.954,194.407 72.832,194.201 70.713 C 193.995 68.593,193.570 65.906,193.257 64.740 C 192.662 62.525,192.468 58.166,192.967 58.220 C 193.392 58.266,197.167 60.415,200.699 62.620 C 204.980 65.294,206.209 66.007,207.322 66.464 C 207.852 66.681,208.719 67.151,209.249 67.508 C 210.897 68.617,212.017 68.675,213.549 67.730 C 214.325 67.251,215.748 66.371,216.711 65.773 C 218.879 64.429,223.281 64.205,225.455 65.329 C 226.161 65.694,227.841 66.308,229.188 66.693 L 231.636 67.393 231.987 66.548 C 232.180 66.084,232.608 63.276,232.939 60.308 C 233.270 57.341,233.706 54.220,233.909 53.372 C 234.112 52.524,234.285 50.790,234.293 49.518 C 234.301 48.247,234.550 46.166,234.845 44.894 C 235.141 43.622,235.496 41.021,235.635 39.114 C 235.774 37.206,236.130 34.258,236.426 32.563 C 236.723 30.867,237.154 27.572,237.384 25.241 C 238.008 18.927,238.916 17.603,242.389 17.950 C 243.131 18.024,245.906 18.185,248.555 18.308 M187.949 28.227 C 188.549 28.877,188.862 30.013,189.199 32.755 C 189.446 34.769,189.883 37.457,190.171 38.728 C 190.458 40.000,190.796 42.688,190.920 44.701 C 191.045 46.715,191.403 49.316,191.715 50.482 C 192.326 52.760,192.504 58.189,191.967 58.189 C 191.788 58.189,191.328 57.842,190.944 57.418 C 190.561 56.994,190.017 56.647,189.736 56.647 C 188.146 56.647,186.168 55.310,184.382 53.027 C 181.857 49.800,180.564 49.015,176.144 48.030 C 166.548 45.891,154.980 47.777,156.803 51.183 C 156.994 51.541,157.346 53.740,157.583 56.071 C 157.821 58.401,158.187 61.002,158.397 61.850 C 158.606 62.697,159.026 65.654,159.331 68.420 C 159.635 71.186,160.079 73.961,160.318 74.586 C 160.558 75.211,160.906 77.717,161.092 80.154 C 161.278 82.592,161.682 85.713,161.990 87.091 C 162.297 88.468,162.665 91.204,162.807 93.170 C 162.949 95.136,163.221 97.288,163.412 97.954 C 163.603 98.619,163.947 101.433,164.177 104.206 C 164.407 106.979,164.839 110.462,165.137 111.946 C 165.434 113.430,165.869 116.638,166.103 119.075 C 166.336 121.513,166.682 124.114,166.870 124.855 C 167.059 125.597,167.404 128.198,167.637 130.636 C 167.870 133.073,168.301 136.021,168.593 137.187 C 168.886 138.353,169.315 141.366,169.547 143.883 C 169.778 146.400,170.113 148.741,170.292 149.085 C 170.471 149.429,170.736 150.925,170.881 152.408 C 171.026 153.892,171.481 156.104,171.892 157.323 C 172.303 158.543,172.640 160.309,172.640 161.248 C 172.640 162.187,172.886 164.137,173.186 165.582 C 173.487 167.026,173.931 170.289,174.173 172.832 C 174.416 175.376,174.859 178.497,175.159 179.769 C 177.444 189.456,176.697 195.838,172.435 203.041 C 170.770 205.856,169.615 208.223,169.326 209.415 C 169.176 210.037,168.646 211.145,168.149 211.878 C 167.651 212.610,167.239 213.402,167.233 213.638 C 167.209 214.467,165.344 216.185,164.469 216.183 C 161.492 216.177,160.162 210.944,161.923 206.166 C 162.274 205.212,162.684 203.827,162.834 203.089 C 162.984 202.350,163.343 201.384,163.633 200.943 C 165.554 198.010,164.700 189.595,162.481 189.595 C 162.273 189.595,161.793 189.315,161.414 188.971 C 160.755 188.375,158.607 187.751,151.501 186.088 C 149.731 185.674,147.069 184.708,145.587 183.941 C 142.302 182.241,135.973 182.008,130.846 183.400 C 129.353 183.805,126.917 184.253,125.434 184.394 C 123.950 184.536,121.485 184.887,119.957 185.175 C 118.428 185.463,115.074 185.893,112.502 186.129 C 109.931 186.366,107.366 186.748,106.804 186.978 C 105.901 187.346,102.054 187.909,95.158 188.679 C 92.132 189.017,89.260 187.433,85.907 183.577 C 84.968 182.498,83.376 181.043,82.369 180.342 C 81.362 179.642,80.094 178.486,79.550 177.774 C 78.634 176.572,75.375 173.350,66.365 164.736 C 64.398 162.855,61.968 160.699,60.965 159.945 C 55.332 155.708,53.494 152.597,53.457 147.234 C 53.431 143.647,53.667 142.432,55.334 137.572 C 55.661 136.618,56.077 135.318,56.258 134.682 C 56.576 133.567,58.076 129.749,59.135 127.360 C 60.250 124.846,61.228 121.882,61.485 120.240 C 61.633 119.290,61.980 118.163,62.255 117.735 C 62.531 117.306,62.867 116.262,63.002 115.414 C 63.137 114.566,63.491 113.179,63.789 112.331 C 64.087 111.484,64.583 109.750,64.892 108.478 C 65.423 106.288,66.231 103.573,67.644 99.229 C 67.989 98.170,68.604 96.590,69.010 95.719 C 69.417 94.848,69.751 93.807,69.752 93.407 C 69.757 92.118,71.029 90.688,74.182 88.431 C 75.877 87.217,77.895 85.682,78.665 85.020 C 81.193 82.847,82.999 81.486,86.127 79.397 C 93.404 74.537,95.163 72.844,96.154 69.750 C 98.421 62.671,102.015 58.332,109.958 53.084 C 113.938 50.455,115.141 50.077,117.107 50.840 C 121.293 52.463,131.424 52.408,135.274 50.741 C 139.913 48.732,145.079 47.506,150.733 47.072 C 154.873 46.753,155.857 46.275,155.562 44.723 C 154.696 40.162,154.515 38.747,154.476 36.199 C 154.416 32.386,154.679 31.599,156.014 31.599 C 156.591 31.599,158.092 31.331,159.349 31.004 C 160.605 30.677,163.345 30.246,165.436 30.047 C 167.527 29.847,169.960 29.486,170.842 29.243 C 172.786 28.707,182.475 27.467,185.193 27.405 C 186.762 27.369,187.307 27.532,187.949 28.227 M270.520 93.182 C 270.520 93.762,273.345 97.357,274.443 98.175 C 275.059 98.633,277.457 101.947,277.457 102.340 C 277.457 102.511,279.239 105.338,279.870 106.166 C 280.423 106.892,283.672 111.887,284.237 112.880 C 284.548 113.426,285.131 114.393,285.533 115.029 C 285.936 115.665,286.946 117.486,287.779 119.075 C 288.612 120.665,289.723 122.598,290.249 123.372 C 290.774 124.145,291.384 125.272,291.605 125.876 C 294.248 133.110,295.717 135.683,301.142 142.582 C 302.725 144.595,304.955 147.457,306.097 148.940 C 316.336 162.236,318.895 163.290,329.865 158.723 C 334.192 156.921,340.920 155.902,344.379 156.523 L 346.369 156.881 346.618 158.693 C 346.755 159.689,346.691 161.197,346.475 162.044 C 346.260 162.891,345.803 164.709,345.460 166.084 C 345.117 167.459,344.694 168.760,344.520 168.974 C 344.346 169.189,344.024 169.971,343.805 170.713 C 343.275 172.507,341.674 176.368,339.888 180.154 C 339.088 181.850,337.775 184.798,336.969 186.705 C 334.745 191.972,333.197 193.557,325.407 198.546 C 322.491 200.414,318.226 204.414,314.817 208.478 C 313.662 209.855,310.457 213.325,307.696 216.189 C 304.935 219.052,302.442 221.956,302.158 222.643 C 301.873 223.330,301.505 223.892,301.340 223.892 C 300.755 223.892,297.627 229.598,296.516 232.692 L 295.778 234.747 297.218 239.050 C 298.011 241.416,298.765 243.839,298.895 244.434 C 299.025 245.029,299.804 246.839,300.625 248.455 C 303.045 253.215,302.605 256.385,298.497 263.776 C 294.358 271.222,291.925 275.412,291.334 276.108 C 290.974 276.532,289.847 278.266,288.831 279.961 C 285.839 284.952,283.203 288.561,281.229 290.366 C 276.381 294.803,274.457 298.569,273.749 305.010 C 273.610 306.281,273.259 307.994,272.971 308.815 C 272.683 309.637,272.447 310.764,272.447 311.320 C 272.446 313.153,270.353 316.855,268.167 318.888 C 265.717 321.167,262.428 324.967,262.428 325.519 C 262.428 325.733,262.075 326.356,261.645 326.903 C 260.451 328.420,257.961 333.645,257.267 336.087 C 256.582 338.500,252.839 342.935,249.653 345.109 C 247.817 346.362,247.160 346.879,245.350 348.492 C 243.398 350.232,238.276 353.757,237.701 353.757 C 237.412 353.757,236.484 354.147,235.640 354.624 C 234.184 355.446,233.674 355.492,225.819 355.515 C 218.534 355.537,217.371 355.626,216.185 356.252 C 210.348 359.334,205.206 355.814,204.227 348.065 C 203.374 341.314,202.389 337.974,200.052 333.911 C 197.133 328.838,191.925 318.228,190.216 313.873 C 187.918 308.015,187.009 305.930,186.559 305.480 C 186.322 305.243,186.127 304.876,186.127 304.666 C 186.127 304.357,183.665 299.343,179.768 291.715 C 177.193 286.677,177.058 285.333,179.094 285.030 C 181.466 284.677,185.362 283.994,188.439 283.393 C 190.029 283.082,193.324 282.579,195.761 282.275 C 198.198 281.971,201.753 281.468,203.661 281.156 C 211.271 279.913,212.697 279.710,217.148 279.229 C 219.692 278.955,223.333 278.455,225.241 278.119 C 227.148 277.782,230.183 277.330,231.985 277.114 C 233.786 276.898,236.561 276.545,238.150 276.330 C 242.764 275.705,253.530 274.319,256.262 273.998 C 266.886 272.751,275.595 258.351,269.241 252.537 C 268.567 251.921,267.148 250.391,266.089 249.138 C 265.029 247.885,263.876 246.591,263.527 246.262 C 260.468 243.384,254.335 237.203,254.335 236.998 C 254.335 236.855,253.896 236.504,253.359 236.217 C 252.695 235.861,252.249 235.159,251.961 234.017 C 251.325 231.492,251.157 232.193,250.816 238.785 C 250.634 242.317,250.262 245.553,249.918 246.590 C 249.595 247.565,249.061 249.403,248.730 250.674 C 247.259 256.338,244.200 260.588,238.958 264.249 L 236.876 265.703 231.251 265.703 C 224.410 265.703,222.650 265.112,219.894 261.886 C 217.397 258.964,214.889 254.494,214.192 251.726 C 213.942 250.735,213.509 249.487,213.230 248.951 C 212.628 247.798,212.552 237.549,213.122 234.489 C 213.319 233.430,213.737 229.850,214.051 226.535 C 214.365 223.220,214.798 219.721,215.014 218.758 C 215.229 217.796,215.508 215.479,215.634 213.610 C 215.759 211.741,216.272 208.044,216.774 205.395 C 217.275 202.746,217.802 199.711,217.943 198.651 C 218.143 197.162,218.271 196.900,218.507 197.495 C 218.676 197.919,221.907 201.393,225.688 205.215 C 232.455 212.054,236.788 216.782,240.729 221.626 C 241.829 222.978,244.221 225.631,246.044 227.522 C 247.868 229.412,249.503 231.214,249.677 231.526 C 250.530 233.049,251.796 229.720,252.362 224.470 C 252.568 222.563,252.921 220.519,253.146 219.928 C 253.372 219.337,253.736 216.823,253.956 214.340 C 254.176 211.858,254.524 208.995,254.731 207.978 C 254.937 206.961,255.368 202.649,255.689 198.396 C 256.009 194.142,256.360 190.520,256.467 190.346 C 256.575 190.172,256.907 186.333,257.205 181.816 C 257.503 177.299,257.920 173.150,258.132 172.595 C 258.343 172.041,258.632 169.700,258.774 167.393 C 258.917 165.086,259.363 161.567,259.767 159.573 C 260.171 157.578,260.502 155.324,260.503 154.563 C 260.505 153.802,260.853 150.855,261.278 148.014 C 261.702 145.174,262.220 140.839,262.428 138.381 C 262.636 135.923,263.063 132.177,263.375 130.058 C 263.688 127.938,264.122 124.297,264.339 121.965 C 264.556 119.634,264.901 116.079,265.106 114.066 C 265.311 112.052,265.663 108.497,265.888 106.166 C 266.470 100.142,267.375 92.489,267.659 91.197 L 267.901 90.098 269.210 91.367 C 269.931 92.065,270.520 92.882,270.520 93.182 M167.245 219.318 C 167.245 219.526,168.112 220.577,169.171 221.654 C 170.231 222.731,171.098 223.751,171.098 223.921 C 171.098 224.091,171.749 225.006,172.543 225.954 C 173.338 226.902,174.422 228.414,174.952 229.314 C 175.482 230.213,176.305 231.537,176.782 232.255 C 177.259 232.973,177.649 233.647,177.649 233.754 C 177.649 233.860,178.252 235.235,178.989 236.809 C 185.392 250.484,185.428 255.887,179.222 271.484 C 177.970 274.631,177.824 275.394,177.649 279.726 L 177.457 284.500 175.530 284.978 C 174.470 285.240,172.476 285.573,171.098 285.717 C 169.721 285.861,167.640 286.221,166.474 286.516 C 155.739 289.232,145.677 288.092,142.393 283.786 C 141.830 283.048,141.073 282.145,140.710 281.781 C 136.829 277.877,136.463 274.543,139.308 268.979 C 141.295 265.092,142.967 261.445,142.967 261.000 C 142.967 260.824,143.373 260.076,143.868 259.338 C 144.364 258.600,145.378 256.782,146.122 255.299 C 146.866 253.815,149.170 249.220,151.242 245.087 C 153.313 240.954,155.521 236.618,156.149 235.453 C 156.776 234.287,158.359 231.280,159.666 228.770 C 160.973 226.260,162.216 223.899,162.428 223.523 C 162.640 223.147,163.321 221.718,163.942 220.347 L 165.070 217.854 166.157 218.396 C 166.755 218.695,167.245 219.109,167.245 219.318 " stroke="none" fill="#a6ce39" fill-rule="evenodd"></path></g></svg>